inDegrees=no
num_controls=7
num_derivatives=13
num_iterations=105
num_multipliers=7
num_parameters=0
num_slacks=7
num_states=26
objective=0.543564
objective_accelerations=0.060577
objective_balance=0.003266
objective_effort=0.047283
objective_height=0.422670
objective_ligament=0.009768
solver_duration=1139.189381
status=Solve_Succeeded
success=true
DataType=double
version=3
OpenSimVersion=4.5
endheader
time	/jointset/ground_pelvis/pelvis_tilt/value	/jointset/ground_pelvis/pelvis_tx/value	/jointset/ground_pelvis/pelvis_ty/value	/jointset/hip_r/hip_flexion_r/value	/jointset/hip_r/hip_adduction_r/value	/jointset/hip_r/hip_rotation_r/value	/jointset/back/lumbar_extension/value	/jointset/patellofemoral_r/patellar_flexion_r/value	/jointset/knee_r/knee_flexion_r/value	/jointset/knee_r/knee_adduction_r/value	/jointset/knee_r/knee_rotation_r/value	/jointset/ankle_r/ankle_angle_r/value	/jointset/subtalar_r/subtalar_angle_r/value	/jointset/ground_pelvis/pelvis_tilt/speed	/jointset/ground_pelvis/pelvis_tx/speed	/jointset/ground_pelvis/pelvis_ty/speed	/jointset/hip_r/hip_flexion_r/speed	/jointset/hip_r/hip_adduction_r/speed	/jointset/hip_r/hip_rotation_r/speed	/jointset/back/lumbar_extension/speed	/jointset/patellofemoral_r/patellar_flexion_r/speed	/jointset/knee_r/knee_flexion_r/speed	/jointset/knee_r/knee_adduction_r/speed	/jointset/knee_r/knee_rotation_r/speed	/jointset/ankle_r/ankle_angle_r/speed	/jointset/subtalar_r/subtalar_angle_r/speed	/forceset/tau_hip_flexion_r	/forceset/tau_hip_adduction_r	/forceset/tau_hip_rotation_r	/forceset/tau_knee_flexion_r	/forceset/tau_ankle_angle_r	/forceset/tau_subtalar_angle_r	/forceset/tau_lumbar_extension	lambda_cid13_p0	lambda_cid14_p0	lambda_cid14_p1	lambda_cid14_p2	lambda_cid14_p3	lambda_cid14_p4	lambda_cid14_p5	/jointset/ground_pelvis/pelvis_tilt/accel	/jointset/ground_pelvis/pelvis_tx/accel	/jointset/ground_pelvis/pelvis_ty/accel	/jointset/hip_r/hip_flexion_r/accel	/jointset/hip_r/hip_adduction_r/accel	/jointset/hip_r/hip_rotation_r/accel	/jointset/back/lumbar_extension/accel	/jointset/patellofemoral_r/patellar_flexion_r/accel	/jointset/knee_r/knee_flexion_r/accel	/jointset/knee_r/knee_adduction_r/accel	/jointset/knee_r/knee_rotation_r/accel	/jointset/ankle_r/ankle_angle_r/accel	/jointset/subtalar_r/subtalar_angle_r/accel	gamma_cid13_p0	gamma_cid14_p0	gamma_cid14_p1	gamma_cid14_p2	gamma_cid14_p3	gamma_cid14_p4	gamma_cid14_p5
0	-0.006515120224981216	0.09626018821651386	0.9427240694634097	0.1762555222360518	-0.2321527934561916	-0.2616386030862244	-0.038598046466844	0.0731786387345103	0.07317863873451017	0.1745327996226267	0.1745309524213801	0.03247278518263602	-0.003452115337415116	0	0	0	0	0	0	0	0	0	0	0	0	0	0.2213239302436303	-0.1476700565482872	-0.04009114185004921	-0.3790459876646686	0.3492043948461465	-0.1445243358626102	-0.1230759264538114	-39.0760404602607	62.36964749309149	-41.94398502177135	-4.164005100452847	-14.25482455334881	-673.2853032866881	50.96548654921857	-2.529784778238082	-1.664311862440611	-0.7783943395013772	11.29329739563788	-0.0671203668084023	3.036804314243088	-5.483091607949305	11.22853773565186	11.22853773564873	-2.893574592131663	0.2181102657154059	3.298318098719411	0.6578706103146398	1.169926417885268e-07	5.026880259086078e-08	-8.800410219354839e-07	2.479786321639364e-07	4.077285410779464e-08	8.974984371814784e-08	-4.163841602386068e-07
0.01	-0.006634309220684557	0.09618028250149954	0.9426866038747821	0.1768003286759072	-0.2321551203875315	-0.2614774632200129	-0.03887498842192024	0.07372396462204836	0.07372396462204545	0.1743893232422659	0.1745281841733057	0.03263575094780345	-0.003418698154293265	-0.02383351854498765	-0.01568821441990477	-0.007476326294776164	0.1083005621342697	-0.0005299892439970868	0.032065210641752	-0.05493374023729742	0.108579161004422	0.1085791610044014	-0.02840641730896527	-0.0005245163936038916	0.03269518733347566	0.006640573878573512	0.2245123623531214	-0.1633137629925137	-0.0416629158181954	-0.3915304294008956	0.3691114575757595	-0.1364280740922676	-0.124168952235066	-39.09439262138621	69.13474488506188	-37.33106226265161	-4.79914039214318	-21.43549273615535	-674.2044417814278	60.91080593430311	-2.309492667139279	-1.47712878974027	-0.7297151098857634	10.49932829053012	-0.05572398454375813	3.267029209830491	-5.430317614922172	10.59967940882969	10.59967940882855	-2.770960572960754	-0.1832859366923596	3.270442900375543	0.6606115915271944	1.526397806409384e-07	2.627006372783925e-08	-1.177214965434232e-06	2.084130455566722e-07	9.702433866979558e-08	-1.967842071188489e-07	-4.726587438505217e-07
0.02	-0.006991704856740443	0.09595228413069122	0.9425748823561227	0.1784083192707487	-0.2321647043675819	-0.2610005412932501	-0.03968762825603028	0.07534049694482928	0.07534049694482864	0.1739704256342958	0.1745210600923436	0.03312873335624737	-0.003320183069405996	-0.04764132807038363	-0.02961853115880423	-0.0148511860063748	0.2126368309968813	-0.001451409741932821	0.06315641211107308	-0.1071395758066836	0.2142412870485366	0.2142412870485114	-0.05508424552520429	-0.0008711665789705722	0.06600332865550715	0.01301958035308719	0.2277007944626365	-0.178957469436731	-0.04323468978632623	-0.4040148711371069	0.3890185203053822	-0.1283318123219133	-0.125261978016311	-39.14849953280324	75.99779965224243	-32.72313659655093	-5.408176501223127	-28.81439692291509	-673.616679103886	70.602179546869	-2.524642974319751	-1.312732326239546	-0.758101022865871	10.50043874130626	-0.1454066175961283	2.84200247975689	-4.937510674367047	10.64513074359037	10.64513074359047	-2.547856773586417	0.2536835073628589	3.420908896430582	0.6055571295026773	1.882869194933499e-07	2.271324864817719e-09	-1.474388908932979e-06	1.68847458949408e-07	1.532758232317965e-07	-4.833182579558457e-07	-5.289333274624366e-07
0.03	-0.007586453225828272	0.09559141048037323	0.942389531014441	0.1810425316519489	-0.2321854330016342	-0.260219752707284	-0.04100897072856689	0.07800020268406659	0.07800020268406713	0.1732935559027484	0.1745133445931309	0.03395525333940339	-0.003159729951557732	-0.07117873362578149	-0.04249666909020531	-0.02222834270577572	0.3137118261823341	-0.0027301515604392	0.09285968702852743	-0.1567698377422604	0.3172304876132088	0.317230487613213	-0.08003610745927853	-0.0007033808498425538	0.09913001172916665	0.01899550124151651	0.2205822451391046	-0.1886848871494601	-0.0412631918070975	-0.3959286920537524	0.3747762599440832	-0.1137721295423344	-0.1196346167792542	-39.23676885468709	72.05906692994901	-27.19258301950345	-6.172164589505442	-26.88214691088025	-672.5841428093587	80.54909154527259	-2.248834522789441	-1.266394171949721	-0.7290098712114839	9.836959738585822	-0.1246684031552502	3.013312769950691	-4.921921809396267	10.05537093362623	10.05537093363019	-2.43103111370464	-0.1063040754131805	3.232981599873835	0.5820654873245039	2.145544189390386e-07	-3.714312569311157e-09	-1.668844755365063e-06	1.994444746374724e-07	1.830227925583211e-07	-6.406707296093662e-07	-6.168712350190245e-07
0.04	-0.008412684685797877	0.09510354752166936	0.9421301107302184	0.1846726799512876	-0.232220061141707	-0.2591461668177011	-0.04281584339170794	0.08167571167309563	0.08167571167309735	0.1723747315097815	0.1745063809149869	0.03510792687070406	-0.002941826441062865	-0.09393794624676634	-0.05501639283597925	-0.02966497451454627	0.4118240146246281	-0.004231310946039784	0.1217158728344213	-0.2042456139275682	0.4174019370067046	0.4174019370067223	-0.1034751778088212	-0.0007208023647525453	0.1312340382844343	0.02450965888240352	0.2134636958155713	-0.1984123048621896	-0.03929169382787527	-0.3878425129703957	0.3605339995827848	-0.09921244676275578	-0.1140072555421993	-39.35719612411459	68.20860412331615	-21.65733963488801	-6.924601771022918	-25.14751696946761	-670.2129748205798	90.28597604140231	-2.369004387437156	-1.241049489114115	-0.7699960447397957	9.907877392674523	-0.1898901310149661	2.672584657444776	-4.506613524313247	10.08158050935508	10.08158050935202	-2.245298456680105	0.2166420585552702	3.216377592752208	0.5132044799942216	2.406285237577846e-07	-9.328545850266988e-09	-1.861182702888556e-06	2.314881419192549e-07	2.122232770346297e-07	-7.953596635477634e-07	-7.054619946157087e-07
0.05	-0.009463332111346721	0.09449222266815592	0.9417957242112106	0.1892705068422774	-0.232270604879477	-0.2577905142500976	-0.04508630930895142	0.08634003196175523	0.08634003196175878	0.1712288484798218	0.1745005393226265	0.03657681033593064	-0.002670766389679721	-0.1160717250276151	-0.06719067012394617	-0.03724186184355699	0.5072578379324042	-0.005903731976158988	0.1492471556122238	-0.2495092667345226	0.5149842947798466	0.514984294779795	-0.1254384924691687	-0.0004777531991928292	0.1623608637113298	0.02963484747503422	0.2060569428990549	-0.1823740843982156	-0.03747157324259207	-0.3804758964523663	0.3522624043360067	-0.1081264953657569	-0.1082258907453607	-39.50730844484703	65.35664939426623	-26.05532232043448	-6.192312239785236	-23.40137904567766	-668.1769302986473	79.93502277593051	-2.117571684344455	-1.196888006595531	-0.7561252824123496	9.288610462201255	-0.160084842319873	2.768363720514804	-4.485495740895185	9.524841183062964	9.524841183054599	-2.132679344112693	-0.07628815839917792	3.033606113124678	0.5017846064961456	2.330957219022797e-07	-2.022225139304178e-08	-1.797045993847795e-06	2.075216229041437e-07	2.191483645231729e-07	-8.929691248414535e-07	-6.785936646659322e-07
